<svg xmlns="http://www.w3.org/2000/svg" width="203" height="30" fill="#0072ee" xmlns:v="https://vecta.io/nano"><path d="M44.5 22.9l6.2-15.2h1l6.1 15.2h-1L54.9 18h-7.4l-2 4.9h-1m3.3-5.6h6.8l-3.3-8.6-3.5 8.6zm70.4-9.5h2.9L127 23h-2.9l-1.5-4h-6.1l-1.5 4h-2.8a596.14 596.14 0 0 0 6-15.2m1.4 2.5l-2.4 6.6h4.7l-2.3-6.6zm33 12.6V7.7h2.5v15.2h-2.5zm23.5-15.1h2.5v2.3h-2.5V7.8zm-6.4.8h2.5v3.3h2.2v1.8h-2.2v6.1c0 .4 0 1 .5 1.2s1.2.1 1.7.1v1.8c-1.3.1-2.6.3-3.8-.3-.8-.5-.9-1.5-.9-2.3v-6.6h-1.9v-1.8h1.9V8.6h0zm-109.5 4c2.2-1.7 5.9-.9 6.9 1.7V12h.9v10.4c0 1.4-.4 3-1.6 3.9-1.6 1-3.6 1-5.4.5-1.3-.4-2.1-1.8-2.2-3.1h.8c.2 1 .8 2.1 1.8 2.4 1.8.7 4.2.4 5.2-1.4.8-1.4.4-3.1.5-4.7-1 2.5-4.3 3.2-6.5 1.9-1.4-.8-2.1-2.4-2.3-4-.3-1.9.3-4 1.9-5.3m1.6.1c-2.6 1-3.2 4.4-2.3 6.7.7 2 3.1 3 5 2.2 1.4-.5 2.3-2 2.5-3.4.2-1.5 0-3.3-1.1-4.5-1-1.1-2.7-1.5-4.1-1h0zm9.3.9c1.6-2.3 5.3-2.6 7.2-.5 1.1 1.2 1.5 2.9 1.5 4.5h-9c.1 1.2.3 2.4 1 3.3 1.5 2.1 5.2 2.1 6.5-.2.3-.5.5-1 .7-1.5h.8c-.3 1-.6 2-1.4 2.7-1.3 1.3-3.2 1.5-4.9 1.1-1.6-.4-2.8-1.7-3.2-3.2-.6-2-.5-4.4.8-6.2m1.2-.1c-1 .9-1.4 2.2-1.5 3.4H79c-.2-1.2-.4-2.5-1.4-3.4-1.4-1.4-3.9-1.4-5.3 0h0zm10.2.9c.9-2.5 4.2-3.4 6.4-2.1 1.1.7 1.5 2.1 1.5 3.3v7.3h-.8v-7.3c0-1.1-.4-2.3-1.4-2.8-1.5-.8-3.4-.4-4.6.8-.8.9-1.1 2.1-1.1 3.3v6h-.9V12h.9v2.4h0zm11.4-1.2c1.6-1.7 4.5-1.9 6.5-.7 1.1.6 1.6 1.8 1.8 2.9h-.8c-.2-.8-.5-1.7-1.2-2.2-1.7-1.2-4.3-1-5.6.6-1.5 1.8-1.6 4.6-.6 6.6 1.1 2.2 4.3 2.7 6.1 1.2.8-.6 1.2-1.6 1.4-2.5h.8c-.2 1-.5 2-1.3 2.7-2 2-5.8 1.8-7.4-.5-1.7-2.3-1.7-5.9.3-8.1h0zm36.5.4c.7-.9 1.5-1.7 2.6-1.9 1.4-.2 2.9 0 4 1 .7.7.9 1.7.9 2.7V23h-2.5v-7c0-.9-.4-2.1-1.4-2.3-1.6-.5-3.3.8-3.4 2.4V23h-2.5V12h2.3v1.6h0zm12.1-1.6c1.5-.5 3.2-.6 4.8-.2 1.2.3 2.4 1.3 2.4 2.6l.1 6.3c0 .7.7.5 1.1.6v1.6c-1.2.4-3.1.5-3.5-1-1.2.9-2.7 1.3-4.2 1.3-1.1-.1-2.3-.5-2.9-1.5-1-1.5-.5-3.8 1.1-4.6s3.5-.6 5.2-1.1c1.1-.3 1-1.9.1-2.3-1.4-.6-3.8-.4-4.1 1.5h-2.4c0-1.4.9-2.7 2.3-3.2m.6 6.4c-1 .4-1.3 2-.3 2.6 1.4.8 3.4.5 4.3-.9.3-.8.1-1.7.2-2.6-1.4.5-2.9.3-4.2.9h0zm38.7-4.7c1.6-2.3 4.9-2.6 7.2-1.5 1.3.6 2.1 2 2.2 3.3h-2.5c-.2-.5-.4-1.1-.8-1.5-1.3-1.1-3.6-.7-4.3.9s-.8 3.6.1 5.1c.8 1.4 2.9 1.7 4.1.6.5-.5.7-1.2.9-1.9h2.5c-.3 1.4-.8 2.8-2 3.6-2.5 1.6-6.4 1-7.8-1.7-1.1-2.1-1-4.9.4-6.9h0zm11.4-.4c.8-1.2 2.3-1.6 3.6-1.7 1.5-.1 3.2.1 4.3 1.2.6.5.8 1.4 1.1 2.1h-2.6c-.5-1.6-2.6-1.8-3.9-1.2-.8.3-.7 1.5.1 1.8 1.7.8 3.7.7 5.4 1.7.7.4 1.2 1.2 1.3 2v.8c-.2 1.5-1.6 2.6-3 2.9-1.9.5-4.2.4-5.8-.9-.8-.7-1-1.7-1.2-2.7h2.5c.2.6.4 1.4 1.1 1.6 1.1.5 2.6.5 3.6-.2.7-.5.4-1.7-.4-2-1.7-.8-3.7-.6-5.3-1.7-1.3-.6-1.6-2.4-.8-3.7h0zM102.7 12h1l4.1 10 3.8-10h.9l-4.8 12.2c-.4.9-.7 2-1.7 2.4-.7.2-1.4.2-2.1.2v-.7c.8-.1 1.8-.1 2.4-.8.5-.7.7-1.6 1.1-2.4L102.7 12h0zm53.6-.1h2.8l2.9 8.3 2.8-8.3h2.6l-4.3 11.5c-.5 1.2-.9 2.6-2 3.3-1.1.8-2.5.5-3.7.4v-2c.7.1 1.4.3 2.1-.1.7-.5.8-1.4 1.1-2.2-1.5-3.5-2.9-7.2-4.3-10.9zm19.8 0h2.5v11h-2.5v-11h0zM14.9 0h.2c2.9 0 5.7.9 8.1 2.5 2.6 1.7 4.7 4.3 5.8 7.3a9.83 9.83 0 0 1 .5 1.6l3.4.4c.3 0 .7.1 1 .2.3.2.5.5.5.9-.1.4-.2.7-.4 1l-3.3 7.8c-.1.2-.2.5-.4.7a.95.95 0 0 1-1.3-.2c-.2-.2-.3-.5-.4-.7l-.9 1.7 1.5 4c.1.2.2.4.1.7 0 .3-.3.5-.5.6-.2 0-.3.1-.5.1h-6c-.2 0-.4-.1-.5 0-2 1-4.2 1.6-6.4 1.6h-.7c-2.2-.1-4.4-.6-6.4-1.6-.1-.1-.3 0-.5 0h-6c-.3 0-.7-.1-.9-.4-.1-.2-.2-.4-.2-.5 0-.4.2-.7.3-1l1.3-3.5C.8 20.9 0 18.2 0 15.5v-.4c0-2.6.7-5.2 2.1-7.5C3.6 5 6 2.9 8.7 1.6 10.6.5 12.7 0 14.9 0m-3.4 1.6l-10 25.9h6.3l5.2-3 1.4 2.5c4.7-2.6 9.2-5.4 13.9-8 .5.9 1 1.7 1.5 2.6l3.7-8.8-9.5-1.2c.5.9 1 1.7 1.5 2.6l-9 5.2c-.5-.8-1-1.7-1.5-2.5-1.5.8-2.9 1.7-4.4 2.5 1.3-4.1 2.9-8.2 4.4-12.2l3.6 10 4.8-2.7c-1.7-4.2-3.3-8.5-4.9-12.8-2.3-.1-4.7-.1-7-.1M21 24.2l1.2 3.3h6.3l-2.4-6.2-5.1 2.9z"/></svg>